<?xml version="1.0" encoding="UTF-8"?>
<svg width="206px" height="168px" viewBox="0 0 206 168" version="1.1" xmlns="http://www.w3.org/2000/svg" xmlns:xlink="http://www.w3.org/1999/xlink">
    <title>delete your data</title>
    <defs>
        <linearGradient x1="50%" y1="0%" x2="50%" y2="76.7050253%" id="linearGradient-1">
            <stop stop-color="#D8D8D8" offset="0%"></stop>
            <stop stop-color="#EEEEEE" stop-opacity="0" offset="100%"></stop>
        </linearGradient>
    </defs>
    <g id="Page-1" stroke="none" stroke-width="1" fill="none" fill-rule="evenodd">
        <g id="Desktop-HD-Copy-2" transform="translate(-351.000000, -1471.000000)">
            <g id="Group-5" transform="translate(350.000000, 1468.000000)">
                <g id="iconmonstr-lock-8" transform="translate(58.000000, 27.000000)" fill="#EFD791" fill-rule="nonzero" opacity="0.973353795">
                    <path d="M26.1111111,46.875 L26.1111111,31.25 C26.1111111,19.7604167 35.4797778,10.4166667 47,10.4166667 C58.5202222,10.4166667 67.8888889,19.7604167 67.8888889,31.25 L67.8888889,46.875 L78.3333333,46.875 L78.3333333,31.25 C78.3333333,13.9947917 64.3012222,0 47,0 C29.6987778,0 15.6666667,13.9947917 15.6666667,31.25 L15.6666667,46.875 L26.1111111,46.875 Z M30.0068889,57.2916667 L44.791,57.2916667 L1.0658141e-14,103.057292 L1.0658141e-14,87.953125 L30.0068889,57.2916667 Z M94,65.4270833 L94,57.2916667 L86.8455556,57.2916667 L20.5755556,125 L35.6886667,125 L94,65.4270833 Z M58.2591111,57.2916667 L0,116.828125 L0,125 L7.10744444,125 L73.3722222,57.2916667 L58.2591111,57.2916667 L58.2591111,57.2916667 Z M94,94.4270833 L94,79.1822917 L49.162,125 L64.0871111,125 L94,94.4270833 Z M77.5552222,125 L94,125 L94,108.197917 L77.5552222,125 Z M16.5335556,57.2916667 L1.77635684e-15,57.2916667 L1.77635684e-15,74.1875 L16.5335556,57.2916667 Z" id="Shape"></path>
                </g>
                <text id="COMPANY-1-/-MAY-2020" fill="url(#linearGradient-1)" font-family="RedHatDisplay-Bold, Red Hat Display" font-size="12" font-weight="bold" letter-spacing="2">
                    <tspan x="16.132" y="12">COMPANY 1 / MAY 2020</tspan>
                    <tspan x="11.748" y="46">COMPANY 2 / JUNE 2019</tspan>
                    <tspan x="13.284" y="80">COMPANY 3 / JULY 2017</tspan>
                    <tspan x="0.79" y="114">COMPANY 3 / AUGUST 2019</tspan>
                    <tspan x="0.448" y="148">COMPANY 4 / AUGUST 2019</tspan>
                    <tspan x="0.868" y="182">COMPANY 5 / AUGUST 2019</tspan>
                </text>
                <text id="DELETE" font-family="RedHatDisplay-Bold, Red Hat Display" font-size="12" font-weight="bold" letter-spacing="2" fill="#444343">
                    <tspan x="75" y="171">DELETE</tspan>
                </text>
            </g>
        </g>
    </g>
</svg>