<?xml version="1.0" encoding="UTF-8"?>
<svg width="120px" height="22px" viewBox="0 0 120 22" version="1.1" xmlns="http://www.w3.org/2000/svg" xmlns:xlink="http://www.w3.org/1999/xlink">
    <title>ELLEN</title>
    <g id="Page-1" stroke="none" stroke-width="1" fill="none" fill-rule="evenodd">
        <g id="Desktop-HD-Copy-2" transform="translate(-79.000000, -59.000000)" fill="#232323" fill-rule="nonzero">
            <g id="TOP-MENU" transform="translate(-14.000000, 0.000000)">
                <path d="M110.755,81 L110.755,77.094 L98.448,77.094 L98.448,71.948 L106.477,71.948 L106.477,68.166 L98.448,68.166 L98.448,63.206 L110.631,63.206 L110.631,59.3 L93.953,59.3 L93.953,81 L110.755,81 Z M135.316,81 L135.316,77.032 L123.443,77.032 L123.443,59.3 L118.948,59.3 L118.948,81 L135.316,81 Z M159.784,81 L159.784,77.032 L147.911,77.032 L147.911,59.3 L143.416,59.3 L143.416,81 L159.784,81 Z M184.686,81 L184.686,77.094 L172.379,77.094 L172.379,71.948 L180.408,71.948 L180.408,68.166 L172.379,68.166 L172.379,63.206 L184.562,63.206 L184.562,59.3 L167.884,59.3 L167.884,81 L184.686,81 Z M197.126,81 L197.126,66.492 L208.193,81 L212.161,81 L212.161,59.3 L207.945,59.3 L207.945,73.343 L197.157,59.3 L192.879,59.3 L192.879,81 L197.126,81 Z" id="ELLEN"></path>
            </g>
        </g>
    </g>
</svg>