<?xml version="1.0" encoding="UTF-8"?>
<svg width="380px" height="126px" viewBox="0 0 380 126" version="1.1" xmlns="http://www.w3.org/2000/svg" xmlns:xlink="http://www.w3.org/1999/xlink">
    <defs>
        <polygon id="path-1" points="66.1075 94 66.1075 83.164 31.9655 83.164 31.9655 68.888 54.2395 68.888 54.2395 58.396 31.9655 58.396 31.9655 44.636 65.7635 44.636 65.7635 33.8 19.4955 33.8 19.4955 94"></polygon>
        <filter x="-9.7%" y="-2.5%" width="112.9%" height="110.0%" filterUnits="objectBoundingBox" id="filter-2">
            <feOffset dx="-3" dy="3" in="SourceAlpha" result="shadowOffsetOuter1"></feOffset>
            <feColorMatrix values="0 0 0 0 0.892295063   0 0 0 0 0.892295063   0 0 0 0 0.892295063  0 0 0 1 0" type="matrix" in="shadowOffsetOuter1"></feColorMatrix>
        </filter>
    </defs>
    <g id="ellen-bucks---full" stroke="none" stroke-width="1" fill="none" fill-rule="evenodd">
        <g id="Group-2" transform="translate(21.000000, 0.000000)">
            <g id="Group">
                <g id="E" fill-rule="nonzero" transform="translate(42.801500, 63.900000) rotate(-15.000000) translate(-42.801500, -63.900000) ">
                    <use fill="black" fill-opacity="1" filter="url(#filter-2)" xlink:href="#path-1"></use>
                    <use fill="#F7B500" xlink:href="#path-1"></use>
                </g>
                <line x1="29.5" y1="19.5" x2="54.5" y2="109.5" id="Line-2" stroke-opacity="0.686134178" stroke="#F7B500" stroke-width="8" stroke-linecap="square"></line>
            </g>
            <path d="M108.115,72 L108.115,68.724 L97.793,68.724 L97.793,64.408 L104.527,64.408 L104.527,61.236 L97.793,61.236 L97.793,57.076 L108.011,57.076 L108.011,53.8 L94.023,53.8 L94.023,72 L108.115,72 Z M128.046,72 L128.046,68.672 L118.088,68.672 L118.088,53.8 L114.318,53.8 L114.318,72 L128.046,72 Z M147.899,72 L147.899,68.672 L137.941,68.672 L137.941,53.8 L134.171,53.8 L134.171,72 L147.899,72 Z M168.116,72 L168.116,68.724 L157.794,68.724 L157.794,64.408 L164.528,64.408 L164.528,61.236 L157.794,61.236 L157.794,57.076 L168.012,57.076 L168.012,53.8 L154.024,53.8 L154.024,72 L168.116,72 Z M177.881,72 L177.881,59.832 L187.163,72 L190.491,72 L190.491,53.8 L186.955,53.8 L186.955,65.578 L177.907,53.8 L174.319,53.8 L174.319,72 L177.881,72 Z M209.839,72 L209.839,65.136 L215.195,65.136 C216.079,65.136 216.893667,64.9973333 217.639,64.72 C218.384333,64.4426667 219.03,64.0526667 219.576,63.55 C220.122,63.0473333 220.546667,62.4536667 220.85,61.769 C221.153333,61.0843333 221.305,60.3346667 221.305,59.52 C221.305,58.688 221.153333,57.921 220.85,57.219 C220.546667,56.517 220.126333,55.9146667 219.589,55.412 C219.051667,54.9093333 218.406,54.515 217.652,54.229 C216.898,53.943 216.079,53.8 215.195,53.8 L215.195,53.8 L206.069,53.8 L206.069,72 L209.839,72 Z M214.779,62.016 L209.839,62.016 L209.839,57.05 L214.779,57.05 C215.593667,57.05 216.248,57.2796667 216.742,57.739 C217.236,58.1983333 217.483,58.8006667 217.483,59.546 C217.483,60.2913333 217.236,60.8893333 216.742,61.34 C216.248,61.7906667 215.593667,62.016 214.779,62.016 L214.779,62.016 Z M236.218,72.286 C237.57,72.286 238.835333,72.0433333 240.014,71.558 C241.192667,71.0726667 242.211,70.4096667 243.069,69.569 C243.927,68.7283333 244.607333,67.7316667 245.11,66.579 C245.612667,65.4263333 245.864,64.2 245.864,62.9 C245.864,61.6 245.612667,60.3736667 245.11,59.221 C244.607333,58.0683333 243.927,57.0716667 243.069,56.231 C242.211,55.3903333 241.192667,54.7273333 240.014,54.242 C238.835333,53.7566667 237.57,53.514 236.218,53.514 C234.883333,53.514 233.626667,53.7566667 232.448,54.242 C231.269333,54.7273333 230.251,55.3903333 229.393,56.231 C228.535,57.0716667 227.854667,58.0683333 227.352,59.221 C226.849333,60.3736667 226.598,61.6 226.598,62.9 C226.598,64.2 226.849333,65.4263333 227.352,66.579 C227.854667,67.7316667 228.535,68.7283333 229.393,69.569 C230.251,70.4096667 231.269333,71.0726667 232.448,71.558 C233.626667,72.0433333 234.883333,72.286 236.218,72.286 Z M236.218,68.828 C235.403333,68.828 234.645,68.6763333 233.943,68.373 C233.241,68.0696667 232.634333,67.6536667 232.123,67.125 C231.611667,66.5963333 231.208667,65.968 230.914,65.24 C230.619333,64.512 230.472,63.732 230.472,62.9 C230.472,62.0506667 230.619333,61.2663333 230.914,60.547 C231.208667,59.8276667 231.611667,59.2036667 232.123,58.675 C232.634333,58.1463333 233.241,57.7303333 233.943,57.427 C234.645,57.1236667 235.403333,56.972 236.218,56.972 C237.032667,56.972 237.795333,57.1236667 238.506,57.427 C239.216667,57.7303333 239.827667,58.1463333 240.339,58.675 C240.850333,59.2036667 241.253333,59.8276667 241.548,60.547 C241.842667,61.2663333 241.99,62.0506667 241.99,62.9 C241.99,63.732 241.842667,64.512 241.548,65.24 C241.253333,65.968 240.850333,66.5963333 240.339,67.125 C239.827667,67.6536667 239.216667,68.0696667 238.506,68.373 C237.795333,68.6763333 237.032667,68.828 236.218,68.828 Z M255.733,72 L255.733,53.8 L251.963,53.8 L251.963,72 L255.733,72 Z M266.122,72 L266.122,59.832 L275.404,72 L278.732,72 L278.732,53.8 L275.196,53.8 L275.196,65.578 L266.148,53.8 L262.56,53.8 L262.56,72 L266.122,72 Z M294.295,72 L294.295,57.128 L300.405,57.128 L300.405,53.8 L284.389,53.8 L284.389,57.128 L290.525,57.128 L290.525,72 L294.295,72 Z M312.796,72.26 C315.118667,72.26 316.977667,71.7313333 318.373,70.674 C319.768333,69.6166667 320.466,68.204 320.466,66.436 C320.466,65.032 320.011,63.901 319.101,63.043 C318.191,62.185 316.834667,61.6086667 315.032,61.314 L315.032,61.314 L311.6,60.742 C310.664,60.6033333 309.996667,60.378 309.598,60.066 C309.199333,59.754 309,59.3206667 309,58.766 C309,58.142 309.303333,57.6436667 309.91,57.271 C310.516667,56.8983333 311.322667,56.712 312.328,56.712 C313.316,56.712 314.278,56.8896667 315.214,57.245 C316.15,57.6003333 317.103333,58.1506667 318.074,58.896 L318.074,58.896 L320.102,56.088 C319.096667,55.2906667 317.922333,54.6666667 316.579,54.216 C315.235667,53.7653333 313.905333,53.54 312.588,53.54 C310.386667,53.54 308.640333,54.034 307.349,55.022 C306.057667,56.01 305.412,57.3533333 305.412,59.052 C305.412,60.3693333 305.815,61.444 306.621,62.276 C307.427,63.108 308.61,63.654 310.17,63.914 L310.17,63.914 L313.784,64.538 C314.858667,64.7113333 315.625667,64.9713333 316.085,65.318 C316.544333,65.6646667 316.774,66.15 316.774,66.774 C316.774,67.4673333 316.436,68.022 315.76,68.438 C315.084,68.854 314.182667,69.062 313.056,69.062 C311.964,69.062 310.928333,68.8496667 309.949,68.425 C308.969667,68.0003333 307.951333,67.3286667 306.894,66.41 L306.894,66.41 L304.736,69.114 C305.828,70.102 307.080333,70.8733333 308.493,71.428 C309.905667,71.9826667 311.34,72.26 312.796,72.26 Z" id="ELLENPOINTS" fill="#F7B500" fill-rule="nonzero"></path>
        </g>
    </g>
</svg>