<?xml version="1.0" encoding="UTF-8"?>
<svg width="80px" height="46px" viewBox="0 0 80 46" version="1.1" xmlns="http://www.w3.org/2000/svg" xmlns:xlink="http://www.w3.org/1999/xlink">
    <!-- Generator: Sketch 64 (93537) - https://sketch.com -->
    <title>Ellen Insights</title>
    <g id="outlined" stroke="none" stroke-width="1" fill="none" fill-rule="evenodd">
        <rect id="Rectangle" fill="#252525" x="1" y="25" width="75" height="21"></rect>
        <path d="M12.705,21 L12.705,18.354 L4.368,18.354 L4.368,14.868 L9.807,14.868 L9.807,12.306 L4.368,12.306 L4.368,8.946 L12.621,8.946 L12.621,6.3 L1.323,6.3 L1.323,21 L12.705,21 Z M27.956,21 L27.956,18.312 L19.913,18.312 L19.913,6.3 L16.868,6.3 L16.868,21 L27.956,21 Z M43.144,21 L43.144,18.312 L35.101,18.312 L35.101,6.3 L32.056,6.3 L32.056,21 L43.144,21 Z M58.626,21 L58.626,18.354 L50.289,18.354 L50.289,14.868 L55.728,14.868 L55.728,12.306 L50.289,12.306 L50.289,8.946 L58.542,8.946 L58.542,6.3 L47.244,6.3 L47.244,21 L58.626,21 Z M65.666,21 L65.666,11.172 L73.163,21 L75.851,21 L75.851,6.3 L72.995,6.3 L72.995,15.813 L65.687,6.3 L62.789,6.3 L62.789,21 L65.666,21 Z" id="ELLEN" fill="#000000" fill-rule="nonzero"></path>
        <path d="M5.342,33.587 C5.57666667,33.587 5.77833333,33.5026667 5.947,33.334 C6.11566667,33.1653333 6.2,32.9636667 6.2,32.729 C6.2,32.4943333 6.11566667,32.2926667 5.947,32.124 C5.77833333,31.9553333 5.57666667,31.871 5.342,31.871 C5.10733333,31.871 4.90566667,31.9553333 4.737,32.124 C4.56833333,32.2926667 4.484,32.4943333 4.484,32.729 C4.484,32.9636667 4.56833333,33.1653333 4.737,33.334 C4.90566667,33.5026667 5.10733333,33.587 5.342,33.587 Z M6.101,40 L6.101,34.269 L4.594,34.269 L4.594,40 L6.101,40 Z M9.085,40 L9.085,36.029 C9.217,35.8456667 9.38383333,35.7045 9.5855,35.6055 C9.78716667,35.5065 10.0126667,35.457 10.262,35.457 C10.6213333,35.457 10.9091667,35.567 11.1255,35.787 C11.3418333,36.007 11.45,36.2966667 11.45,36.656 L11.45,36.656 L11.45,40 L12.957,40 L12.957,36.436 C12.957,35.7686667 12.7443333,35.2223333 12.319,34.797 C11.8936667,34.3716667 11.351,34.159 10.691,34.159 C10.3756667,34.159 10.0841667,34.2066667 9.8165,34.302 C9.54883333,34.3973333 9.305,34.5366667 9.085,34.72 L9.085,34.72 L9.085,34.269 L7.578,34.269 L7.578,40 L9.085,40 Z M16.546,40.11 C16.9053333,40.11 17.239,40.0623333 17.547,39.967 C17.855,39.8716667 18.119,39.7396667 18.339,39.571 C18.559,39.4023333 18.7331667,39.2025 18.8615,38.9715 C18.9898333,38.7405 19.054,38.4893333 19.054,38.218 C19.054,37.778 18.9018333,37.415 18.5975,37.129 C18.2931667,36.843 17.8623333,36.6596667 17.305,36.579 L17.305,36.579 L16.205,36.414 C15.9263333,36.3773333 15.7265,36.3168333 15.6055,36.2325 C15.4845,36.1481667 15.424,36.029 15.424,35.875 C15.424,35.7063333 15.5065,35.5706667 15.6715,35.468 C15.8365,35.3653333 16.0546667,35.314 16.326,35.314 C16.6193333,35.314 16.909,35.3598333 17.195,35.4515 C17.481,35.5431667 17.7816667,35.6806667 18.097,35.864 L18.097,35.864 L18.823,34.896 C18.4636667,34.6613333 18.086,34.4835 17.69,34.3625 C17.294,34.2415 16.887,34.181 16.469,34.181 C15.743,34.181 15.1636667,34.346 14.731,34.676 C14.2983333,35.006 14.082,35.446 14.082,35.996 C14.082,36.458 14.2305,36.8283333 14.5275,37.107 C14.8245,37.3856667 15.2553333,37.569 15.82,37.657 L15.82,37.657 L16.92,37.822 C17.1693333,37.8586667 17.3508333,37.921 17.4645,38.009 C17.5781667,38.097 17.635,38.2143333 17.635,38.361 C17.635,38.5443333 17.5341667,38.691 17.3325,38.801 C17.1308333,38.911 16.8613333,38.966 16.524,38.966 C16.2233333,38.966 15.9226667,38.9128333 15.622,38.8065 C15.3213333,38.7001667 15.0023333,38.537 14.665,38.317 L14.665,38.317 L13.917,39.318 C14.2396667,39.5746667 14.6283333,39.7708333 15.083,39.9065 C15.5376667,40.0421667 16.0253333,40.11 16.546,40.11 Z M20.85,33.587 C21.0846667,33.587 21.2863333,33.5026667 21.455,33.334 C21.6236667,33.1653333 21.708,32.9636667 21.708,32.729 C21.708,32.4943333 21.6236667,32.2926667 21.455,32.124 C21.2863333,31.9553333 21.0846667,31.871 20.85,31.871 C20.6153333,31.871 20.4136667,31.9553333 20.245,32.124 C20.0763333,32.2926667 19.992,32.4943333 19.992,32.729 C19.992,32.9636667 20.0763333,33.1653333 20.245,33.334 C20.4136667,33.5026667 20.6153333,33.587 20.85,33.587 Z M21.609,40 L21.609,34.269 L20.102,34.269 L20.102,40 L21.609,40 Z M25.968,42.365 C26.8846667,42.365 27.5868333,42.1596667 28.0745,41.749 C28.5621667,41.3383333 28.806,40.7553333 28.806,40 L28.806,40 L28.806,34.269 L27.321,34.269 L27.321,34.643 C27.0936667,34.4963333 26.8498333,34.3826667 26.5895,34.302 C26.3291667,34.2213333 26.056,34.181 25.77,34.181 C25.3593333,34.181 24.9743333,34.2561667 24.615,34.4065 C24.2556667,34.5568333 23.944,34.764 23.68,35.028 C23.416,35.292 23.207,35.6018333 23.053,35.9575 C22.899,36.3131667 22.822,36.6926667 22.822,37.096 C22.822,37.5066667 22.8971667,37.8898333 23.0475,38.2455 C23.1978333,38.6011667 23.4031667,38.911 23.6635,39.175 C23.9238333,39.439 24.2318333,39.648 24.5875,39.802 C24.9431667,39.956 25.3226667,40.033 25.726,40.033 C26.012,40.033 26.2888333,39.989 26.5565,39.901 C26.8241667,39.813 27.0716667,39.6846667 27.299,39.516 L27.299,39.516 L27.299,39.989 C27.299,40.363 27.1835,40.6471667 26.9525,40.8415 C26.7215,41.0358333 26.3823333,41.133 25.935,41.133 C25.6343333,41.133 25.3336667,41.0945 25.033,41.0175 C24.7323333,40.9405 24.4243333,40.825 24.109,40.671 L24.109,40.671 L23.581,41.848 C23.9183333,42.0166667 24.2905,42.145 24.6975,42.233 C25.1045,42.321 25.528,42.365 25.968,42.365 Z M25.957,38.757 C25.495,38.757 25.1045,38.5956667 24.7855,38.273 C24.4665,37.9503333 24.307,37.558 24.307,37.096 C24.307,36.6413333 24.4683333,36.2563333 24.791,35.941 C25.1136667,35.6256667 25.506,35.468 25.968,35.468 C26.2246667,35.468 26.4703333,35.5138333 26.705,35.6055 C26.9396667,35.6971667 27.1376667,35.8236667 27.299,35.985 L27.299,35.985 L27.299,38.24 C27.1303333,38.4013333 26.9323333,38.5278333 26.705,38.6195 C26.4776667,38.7111667 26.2283333,38.757 25.957,38.757 Z M31.801,40 L31.801,36.029 C31.933,35.8456667 32.0998333,35.7045 32.3015,35.6055 C32.5031667,35.5065 32.7286667,35.457 32.978,35.457 C33.3373333,35.457 33.6251667,35.567 33.8415,35.787 C34.0578333,36.007 34.166,36.2966667 34.166,36.656 L34.166,36.656 L34.166,40 L35.673,40 L35.673,36.436 C35.673,35.7686667 35.4603333,35.2223333 35.035,34.797 C34.6096667,34.3716667 34.067,34.159 33.407,34.159 C33.0916667,34.159 32.8001667,34.2066667 32.5325,34.302 C32.2648333,34.3973333 32.021,34.5366667 31.801,34.72 L31.801,34.72 L31.801,31.97 L30.294,32.3 L30.294,40 L31.801,40 Z M39.614,40.088 C39.7753333,40.088 39.9696667,40.0715 40.197,40.0385 C40.4243333,40.0055 40.6186667,39.9633333 40.78,39.912 L40.78,39.912 L40.78,38.68 C40.6333333,38.7313333 40.4976667,38.7661667 40.373,38.7845 C40.2483333,38.8028333 40.1163333,38.812 39.977,38.812 C39.6836667,38.812 39.4783333,38.757 39.361,38.647 C39.2436667,38.537 39.185,38.3463333 39.185,38.075 L39.185,38.075 L39.185,35.534 L40.813,35.534 L40.813,34.269 L39.185,34.269 L39.185,32.465 L37.678,32.806 L37.678,34.269 L36.501,34.269 L36.501,35.534 L37.678,35.534 L37.678,38.383 C37.678,38.9403333 37.8411667,39.3638333 38.1675,39.6535 C38.4938333,39.9431667 38.976,40.088 39.614,40.088 Z M44.116,40.11 C44.4753333,40.11 44.809,40.0623333 45.117,39.967 C45.425,39.8716667 45.689,39.7396667 45.909,39.571 C46.129,39.4023333 46.3031667,39.2025 46.4315,38.9715 C46.5598333,38.7405 46.624,38.4893333 46.624,38.218 C46.624,37.778 46.4718333,37.415 46.1675,37.129 C45.8631667,36.843 45.4323333,36.6596667 44.875,36.579 L44.875,36.579 L43.775,36.414 C43.4963333,36.3773333 43.2965,36.3168333 43.1755,36.2325 C43.0545,36.1481667 42.994,36.029 42.994,35.875 C42.994,35.7063333 43.0765,35.5706667 43.2415,35.468 C43.4065,35.3653333 43.6246667,35.314 43.896,35.314 C44.1893333,35.314 44.479,35.3598333 44.765,35.4515 C45.051,35.5431667 45.3516667,35.6806667 45.667,35.864 L45.667,35.864 L46.393,34.896 C46.0336667,34.6613333 45.656,34.4835 45.26,34.3625 C44.864,34.2415 44.457,34.181 44.039,34.181 C43.313,34.181 42.7336667,34.346 42.301,34.676 C41.8683333,35.006 41.652,35.446 41.652,35.996 C41.652,36.458 41.8005,36.8283333 42.0975,37.107 C42.3945,37.3856667 42.8253333,37.569 43.39,37.657 L43.39,37.657 L44.49,37.822 C44.7393333,37.8586667 44.9208333,37.921 45.0345,38.009 C45.1481667,38.097 45.205,38.2143333 45.205,38.361 C45.205,38.5443333 45.1041667,38.691 44.9025,38.801 C44.7008333,38.911 44.4313333,38.966 44.094,38.966 C43.7933333,38.966 43.4926667,38.9128333 43.192,38.8065 C42.8913333,38.7001667 42.5723333,38.537 42.235,38.317 L42.235,38.317 L41.487,39.318 C41.8096667,39.5746667 42.1983333,39.7708333 42.653,39.9065 C43.1076667,40.0421667 43.5953333,40.11 44.116,40.11 Z" id="insights" fill="#FFFFFF" fill-rule="nonzero"></path>
        <g id="Group" transform="translate(51.000000, 31.000000)" fill="#FA6400" fill-rule="nonzero">
            <g id="iconmonstr-arrow-66" transform="translate(0.000000, 4.000000)">
                <polygon id="Path" points="0 4.868 1.17875 6 5.00166667 2.2644 8.82125 6 10 4.868 5.00166667 0"></polygon>
            </g>
            <g id="iconmonstr-arrow-66">
                <polygon id="Path" points="0 4.868 1.17875 6 5.00166667 2.2644 8.82125 6 10 4.868 5.00166667 0"></polygon>
            </g>
        </g>
    </g>
</svg>