<?xml version="1.0" encoding="UTF-8"?>
<svg width="93px" height="26px" viewBox="0 0 93 26" version="1.1" xmlns="http://www.w3.org/2000/svg" xmlns:xlink="http://www.w3.org/1999/xlink">
    <!-- Generator: Sketch 64 (93537) - https://sketch.com -->
    <g id="outlined-copy" stroke="none" stroke-width="1" fill="none" fill-rule="evenodd">
        <rect fill="#000000" x="0" y="0" width="93" height="26"></rect>
        <rect id="Rectangle" fill="#275C50" x="0" y="0" width="93" height="26"></rect>
        <path d="M20.4540844,21 L20.4540844,18.3 L12.0642846,18.3 L12.0642846,14.7428571 L17.5377308,14.7428571 L17.5377308,12.1285714 L12.0642846,12.1285714 L12.0642846,8.7 L20.3695524,8.7 L20.3695524,6 L9,6 L9,21 L20.4540844,21 Z M35.8016719,21 L35.8016719,18.2571429 L27.707734,18.2571429 L27.707734,6 L24.6434494,6 L24.6434494,21 L35.8016719,21 Z M51.0858603,21 L51.0858603,18.2571429 L42.9919225,18.2571429 L42.9919225,6 L39.9276379,6 L39.9276379,21 L51.0858603,21 Z M66.6659108,21 L66.6659108,18.3 L58.276111,18.3 L58.276111,14.7428571 L63.7495572,14.7428571 L63.7495572,12.1285714 L58.276111,12.1285714 L58.276111,8.7 L66.5813788,8.7 L66.5813788,6 L55.2118264,6 L55.2118264,21 L66.6659108,21 Z M73.7504965,21 L73.7504965,10.9714286 L81.2949764,21 L84,21 L84,6 L81.1259124,6 L81.1259124,15.7071429 L73.7716295,6 L70.8552759,6 L70.8552759,21 L73.7504965,21 Z" id="ELLEN" fill="#FFFFFF" fill-rule="nonzero"></path>
    </g>
</svg>